<svg width="116" height="44" viewBox="0 0 116 44" fill="none" xmlns="http://www.w3.org/2000/svg">
<path d="M15.4381 36.44H32.5381L32.4781 44H0.0781252V0.799998H8.05813V21.5C8.05813 24.18 7.97813 28.64 7.81813 34.88H7.87813C9.75813 31.2 12.1781 26.92 15.1381 22.04L27.8581 0.799998H37.0381L15.4381 36.44ZM71.9755 8.78H58.9555V44H50.9755V8.78H38.0155V0.799998H71.9755V8.78ZM93.9889 0.799998C97.8689 0.799998 101.449 1.76 104.729 3.68C108.049 5.56 110.689 8.16 112.649 11.48C114.609 14.8 115.589 18.44 115.589 22.4C115.589 26.4 114.609 30.06 112.649 33.38C110.729 36.66 108.109 39.26 104.789 41.18C101.469 43.06 97.8689 44 93.9889 44H77.1289V0.799998H93.9889ZM93.9889 36.02C96.4289 36.02 98.6889 35.42 100.769 34.22C102.889 32.98 104.549 31.32 105.749 29.24C106.989 27.12 107.609 24.84 107.609 22.4C107.609 19.96 106.989 17.7 105.749 15.62C104.549 13.5 102.889 11.84 100.769 10.64C98.6889 9.4 96.4289 8.78 93.9889 8.78H85.1089V36.02H93.9889Z" fill="#BDFF00"/>
</svg>
